<?xml version="1.0" encoding="UTF-8"?>
<svg xmlns="http://www.w3.org/2000/svg" width="146" height="105" viewBox="0 0 146 105" fill="none">
  <path d="M136.67 15.5513C139.17 2.38125 132.04 3.22125 132.04 3.22125C122.7 2.61125 117.14 15.0413 117.14 15.0413L117.41 5.59125C117.73 -1.49875 108.91 0.171254 108.91 0.171254C97.72 1.56125 92.43 21.1713 92.43 21.1713L81.73 23.9813L74.94 36.9513L15.58 39.1613L70.22 41.6813L53.29 46.3613L38.13 47.0513L54.39 47.9013L66.88 52.6213L10.28 54.9813L61.74 57.7413L55.24 62.0313L30.27 62.9013L52.91 64.1413L47.34 69.0013L0 71.0413L42.6 73.1413L37.06 78.2513L17.14 78.7913L41.51 79.4013C49.47 70.0413 73.56 52.7213 73.56 52.7213L60.79 47.0613L110.33 32.7613L86.36 72.3013L79.24 58.6113C63.27 64.1713 51.21 93.5113 51.21 93.5113L104.8 104.231L130.19 12.5013L122.25 13.7613C122.25 13.7613 124.62 7.28125 131.5 6.57125C131.5 6.57125 132.84 6.37125 133.07 9.18125C133.07 9.18125 133.31 14.2513 133.07 14.2913C132.92 14.3213 131.87 13.6313 131.08 13.1013L134.75 15.6413L121.78 85.4713L104.8 104.231L133.06 99.0813L145.14 16.3913L136.66 15.5413L136.67 15.5513ZM112.8 15.9713C112.16 16.3013 96.84 20.0513 96.84 20.0513C96.84 20.0513 100.22 8.63125 107.07 4.40125C107.07 4.40125 113.79 0.161254 113.66 5.62125C113.66 5.62125 113.44 15.6413 112.8 15.9713Z" fill="#7D9A40"></path>
</svg>
