<?xml version="1.0" encoding="UTF-8"?>
<svg xmlns="http://www.w3.org/2000/svg" width="477" height="105" viewBox="0 0 477 105" fill="none">
  <path d="M188.47 75.09C191.65 78.52 195.75 80.23 200.78 80.23C203.03 80.23 204.87 79.78 206.3 78.88C207.73 77.98 208.44 76.72 208.44 75.09C208.44 73.65 208.01 72.64 207.16 72.08C206.28 71.49 205.12 71.17 203.67 71.11L196.77 70.49C193.49 70.18 190.83 69.05 188.78 67.09C186.68 65.18 185.6 62.52 185.55 59.09C185.6 54.97 187.01 51.88 189.78 49.81C192.48 47.75 195.9 46.72 200.04 46.72C201.84 46.72 203.45 46.84 204.87 47.07C206.29 47.33 207.63 47.69 208.88 48.15C211.28 49.15 213.43 50.51 215.32 52.21L210.48 58.04C208.98 56.92 207.39 56 205.72 55.27C204.07 54.62 202.17 54.29 200.02 54.29C197.57 54.29 195.86 54.74 194.88 55.64C193.85 56.54 193.34 57.7 193.34 59.12C193.29 60.02 193.68 60.81 194.5 61.48C195.25 62.23 196.58 62.71 198.48 62.91L204.93 63.41C208.98 63.72 211.91 64.98 213.71 67.2C215.39 69.37 216.22 72.11 216.22 75.44C216.17 79.34 214.64 82.34 211.61 84.46C208.61 86.63 204.78 87.74 200.11 87.79C193.77 87.79 188.07 85.4 183 80.61L188.45 75.08L188.47 75.09Z" fill="black"></path>
  <path d="M222.16 31H229.96V51.48H230.11C232.68 48.31 236.04 46.73 240.21 46.73C243.43 46.73 246.37 47.9 249.04 50.25C251.68 52.62 253.07 56.1 253.19 60.68V87.35H245.39V63.44C245.39 60.63 244.67 58.49 243.22 57.02C241.8 55.52 239.96 54.78 237.72 54.78C235.48 54.78 233.63 55.53 232.18 57.02C230.71 58.49 229.97 60.63 229.97 63.44V87.35H222.17V31H222.16Z" fill="black"></path>
  <path d="M259.58 67.25C259.58 63.02 259.92 59.77 260.59 57.49C261.29 55.27 262.36 53.4 263.81 51.88C264.88 50.55 266.38 49.36 268.3 48.3C270.2 47.3 272.63 46.78 275.6 46.72C278.67 46.77 281.15 47.3 283.05 48.3C284.92 49.36 286.37 50.55 287.39 51.89C288.93 53.41 290.03 55.28 290.67 57.49C291.29 59.76 291.6 63 291.6 67.23C291.6 71.46 291.29 74.68 290.66 76.89C290.01 79.11 288.91 81.03 287.37 82.65C286.87 83.24 286.26 83.82 285.54 84.39C284.89 85.03 284.06 85.59 283.03 86.05C281.13 87.16 278.65 87.74 275.58 87.79C272.61 87.74 270.18 87.16 268.28 86.05C266.36 85.05 264.86 83.91 263.79 82.65C262.34 81.03 261.27 79.11 260.57 76.89C259.9 74.67 259.56 71.45 259.56 67.23L259.58 67.25ZM283.81 67.33C283.81 64.46 283.69 62.37 283.44 61.05C283.19 59.78 282.68 58.67 281.9 57.71C281.33 56.81 280.47 56.09 279.35 55.58C278.27 55.04 277.02 54.77 275.6 54.77C274.27 54.77 273.05 55.04 271.92 55.58C270.84 56.1 269.97 56.81 269.29 57.71C268.61 58.67 268.13 59.78 267.83 61.05C267.53 62.37 267.38 64.44 267.38 67.25C267.38 70.06 267.53 72.08 267.83 73.38C268.13 74.7 268.62 75.86 269.29 76.87C269.96 77.65 270.84 78.33 271.92 78.92C273.05 79.49 274.27 79.77 275.6 79.77C277.03 79.77 278.28 79.49 279.35 78.92C280.48 78.33 281.33 77.64 281.9 76.87C282.67 75.86 283.19 74.7 283.44 73.38C283.69 72.09 283.81 70.07 283.81 67.33Z" fill="black"></path>
  <path d="M297.92 47.23H305.72V51.4C308.31 48.41 311.66 46.85 315.75 46.72C320.51 46.85 323.99 48.6 326.19 51.98C327.26 53.24 327.99 54.9 328.39 56.97C328.76 59.01 328.95 62.46 328.95 67.33C328.95 72.2 328.76 75.47 328.39 77.53C327.99 79.59 327.26 81.28 326.18 82.59C325.11 84.14 323.7 85.37 321.95 86.3C320.23 87.25 318.16 87.76 315.74 87.81C313.74 87.81 311.96 87.36 310.39 86.46C308.69 85.64 307.14 84.51 305.72 83.08V103.58H297.92V47.23ZM313.4 79.77C315.25 79.77 316.71 79.41 317.78 78.68C318.85 77.93 319.62 76.97 320.06 75.81C320.56 74.59 320.9 73.25 321.07 71.78C321.12 70.33 321.14 68.85 321.14 67.32C321.14 65.72 321.11 64.15 321.07 62.63C320.89 61.1 320.56 59.76 320.06 58.6C319.61 57.39 318.85 56.43 317.78 55.73C316.71 55.08 315.25 54.76 313.4 54.76C311.65 54.76 310.27 55.14 309.24 55.88C308.17 56.63 307.38 57.61 306.88 58.83C306.41 60.05 306.09 61.36 305.94 62.79C305.79 64.29 305.72 65.8 305.72 67.33C305.72 68.75 305.8 70.17 305.94 71.6C306.09 73.1 306.4 74.46 306.88 75.67C307.38 76.89 308.17 77.87 309.24 78.62C310.26 79.4 311.65 79.78 313.4 79.78V79.77Z" fill="black"></path>
  <path d="M341.7 70.33C341.7 73.55 342.6 76 344.4 77.68C346.07 79.38 348.27 80.23 350.99 80.23C354.16 80.23 357 78.93 359.49 76.32L365.15 81.31C361.18 85.69 356.52 87.85 351.15 87.8C349.1 87.8 347.11 87.49 345.16 86.87C344.19 86.54 343.24 86.08 342.32 85.52C341.35 85.03 340.44 84.43 339.59 83.7C337.94 82.21 336.61 80.12 335.59 77.44C334.47 74.86 333.91 71.51 333.91 67.39C333.91 63.27 334.4 60.12 335.37 57.5C336.34 54.82 337.59 52.71 339.11 51.16C340.66 49.59 342.39 48.45 344.31 47.76C346.21 47.06 348.08 46.72 349.92 46.72C354.36 46.77 358.11 48.28 361.18 51.24C364.3 54.26 365.88 58.4 365.93 63.69V70.33H341.7ZM358.13 63.69C358.03 60.56 357.22 58.19 355.69 56.58C354.19 55.05 352.26 54.29 349.91 54.29C347.56 54.29 345.63 55.05 344.13 56.58C342.65 58.18 341.84 60.55 341.69 63.69H358.12H358.13Z" fill="black"></path>
  <path d="M378.11 70.33C378.11 73.55 379.01 76 380.81 77.68C382.48 79.38 384.68 80.23 387.4 80.23C390.57 80.23 393.41 78.93 395.9 76.32L401.56 81.31C397.59 85.69 392.93 87.85 387.56 87.8C385.51 87.8 383.52 87.49 381.57 86.87C380.6 86.54 379.65 86.08 378.73 85.52C377.76 85.03 376.85 84.43 376 83.7C374.35 82.21 373.02 80.12 372 77.44C370.88 74.86 370.32 71.51 370.32 67.39C370.32 63.27 370.81 60.12 371.78 57.5C372.75 54.82 374 52.71 375.52 51.16C377.07 49.59 378.8 48.45 380.72 47.76C382.62 47.06 384.49 46.72 386.33 46.72C390.77 46.77 394.52 48.28 397.59 51.24C400.71 54.26 402.29 58.4 402.34 63.69V70.33H378.11ZM394.54 63.69C394.44 60.56 393.63 58.19 392.1 56.58C390.6 55.05 388.67 54.29 386.32 54.29C383.97 54.29 382.04 55.05 380.54 56.58C379.06 58.18 378.25 60.55 378.1 63.69H394.53H394.54Z" fill="black"></path>
  <path d="M431.87 83.15C429.3 86.15 425.95 87.7 421.81 87.8C419.47 87.75 417.46 87.25 415.79 86.29C414.05 85.36 412.59 84.12 411.41 82.58C410.34 81.32 409.63 79.6 409.28 77.44C408.86 75.38 408.64 71.97 408.64 67.23C408.64 62.49 408.85 58.98 409.28 56.94C409.63 54.88 410.34 53.21 411.41 51.95C413.6 48.59 417.07 46.85 421.81 46.72C423.81 46.72 425.65 47.14 427.35 47.99C428.92 48.89 430.43 50.04 431.88 51.45V31H439.68V87.35H431.88V83.16L431.87 83.15ZM424.19 54.76C422.34 54.76 420.93 55.08 419.96 55.73C418.89 56.43 418.1 57.38 417.6 58.6C417.13 59.82 416.81 61.13 416.66 62.56C416.51 64.09 416.44 65.65 416.44 67.25C416.44 68.85 416.52 70.26 416.66 71.71C416.81 73.24 417.12 74.61 417.6 75.82C418.1 76.98 418.89 77.94 419.96 78.69C420.93 79.41 422.34 79.78 424.19 79.78C426.04 79.78 427.5 79.39 428.57 78.62C429.64 77.87 430.38 76.89 430.78 75.67C431.28 74.46 431.62 73.1 431.79 71.6C431.84 70.13 431.86 68.68 431.86 67.26C431.86 65.71 431.83 64.22 431.79 62.8C431.61 61.38 431.28 60.06 430.78 58.84C430.38 57.63 429.64 56.64 428.57 55.89C427.5 55.14 426.04 54.77 424.19 54.77V54.76Z" fill="black"></path>
  <path d="M444.63 67.25C444.63 63.02 444.97 59.77 445.64 57.49C446.34 55.27 447.41 53.4 448.86 51.88C449.93 50.55 451.43 49.36 453.35 48.3C455.25 47.3 457.68 46.78 460.65 46.72C463.72 46.77 466.2 47.3 468.1 48.3C469.97 49.36 471.42 50.55 472.44 51.89C473.98 53.41 475.08 55.28 475.72 57.49C476.34 59.76 476.65 63 476.65 67.23C476.65 71.46 476.34 74.68 475.71 76.89C475.06 79.11 473.96 81.03 472.42 82.65C471.92 83.24 471.31 83.82 470.59 84.39C469.94 85.03 469.11 85.59 468.08 86.05C466.18 87.16 463.7 87.74 460.63 87.79C457.66 87.74 455.23 87.16 453.33 86.05C451.41 85.05 449.91 83.91 448.84 82.65C447.39 81.03 446.32 79.11 445.62 76.89C444.95 74.67 444.61 71.45 444.61 67.23L444.63 67.25ZM468.86 67.33C468.86 64.46 468.74 62.37 468.49 61.05C468.24 59.78 467.73 58.67 466.95 57.71C466.38 56.81 465.52 56.09 464.4 55.58C463.32 55.04 462.07 54.77 460.65 54.77C459.32 54.77 458.1 55.04 456.97 55.58C455.89 56.1 455.02 56.81 454.34 57.71C453.66 58.67 453.18 59.78 452.88 61.05C452.58 62.37 452.43 64.44 452.43 67.25C452.43 70.06 452.58 72.08 452.88 73.38C453.18 74.7 453.67 75.86 454.34 76.87C455.01 77.65 455.89 78.33 456.97 78.92C458.1 79.49 459.32 79.77 460.65 79.77C462.08 79.77 463.33 79.49 464.4 78.92C465.53 78.33 466.38 77.64 466.95 76.87C467.72 75.86 468.24 74.7 468.49 73.38C468.74 72.09 468.86 70.07 468.86 67.33Z" fill="black"></path>
  <path d="M136.67 15.5513C139.17 2.38125 132.04 3.22125 132.04 3.22125C122.7 2.61125 117.14 15.0413 117.14 15.0413L117.41 5.59125C117.73 -1.49875 108.91 0.171254 108.91 0.171254C97.72 1.56125 92.43 21.1713 92.43 21.1713L81.73 23.9813L74.94 36.9513L15.58 39.1613L70.22 41.6813L53.29 46.3613L38.13 47.0513L54.39 47.9013L66.88 52.6213L10.28 54.9813L61.74 57.7413L55.24 62.0313L30.27 62.9013L52.91 64.1413L47.34 69.0013L0 71.0413L42.6 73.1413L37.06 78.2513L17.14 78.7913L41.51 79.4013C49.47 70.0413 73.56 52.7213 73.56 52.7213L60.79 47.0613L110.33 32.7613L86.36 72.3013L79.24 58.6113C63.27 64.1713 51.21 93.5113 51.21 93.5113L104.8 104.231L130.19 12.5013L122.25 13.7613C122.25 13.7613 124.62 7.28125 131.5 6.57125C131.5 6.57125 132.84 6.37125 133.07 9.18125C133.07 9.18125 133.31 14.2513 133.07 14.2913C132.92 14.3213 131.87 13.6313 131.08 13.1013L134.75 15.6413L121.78 85.4713L104.8 104.231L133.06 99.0813L145.14 16.3913L136.66 15.5413L136.67 15.5513ZM112.8 15.9713C112.16 16.3013 96.84 20.0513 96.84 20.0513C96.84 20.0513 100.22 8.63125 107.07 4.40125C107.07 4.40125 113.79 0.161254 113.66 5.62125C113.66 5.62125 113.44 15.6413 112.8 15.9713Z" fill="#7D9A40"></path>
</svg>
